<svg xmlns="http://www.w3.org/2000/svg" fill="none" height="61" viewBox="0 0 40 61" width="40"><path d="m38.1783 16.8414-7.162-.0797v-4.6932c0-6.2021-5.0465-11.247333-11.2486-11.247333-6.2014 0-11.24666 5.045873-11.24666 11.247333v4.4419l-6.90236-.0771c-.26147.0057-.5019.0969-.683025.2767-.089889.089-.161254.1949-.209967.3115-.048713.1167-.073808.2419-.073833.3684v42.6131c0 .2537.100788.497.280189.6764.179406.1794.422726.2802.676436.2802h36.56022c.2537 0 .497-.1008.6764-.2802s.2802-.4227.2802-.6764v-42.2043c-.0003-.252-.0998-.4938-.2771-.673-.1772-.1791-.4179-.2813-.6699-.2843zm-27.744-4.7729c0-5.14663 4.1868-9.33409 9.3334-9.33409 5.1473 0 9.3354 4.18746 9.3354 9.33409v4.6715l-18.6688-.2085zm26.7771 46.9779h-34.64694v-40.6891l5.95658.0664v2.8654c-1.31951.4317-2.28251 1.66-2.28251 3.1224 0 1.8195 1.48022 3.2991 3.29908 3.2991 1.81889 0 3.29909-1.4802 3.29909-3.2991 0-1.5064-1.0211-2.7666-2.4031-3.1601v-2.806l18.6689.2085v2.6167c-1.3508.4132-2.3425 1.6569-2.3425 3.1409 0 1.8195 1.4802 3.2991 3.2991 3.2991 1.8188 0 3.2991-1.4802 3.2991-3.2991 0-1.484-.9917-2.7283-2.3425-3.1409v-2.595l6.1951.0695zm-27.67379-36.0207c.76399 0 1.38579.6218 1.38579 1.3858s-.6218 1.3858-1.38579 1.3858c-.76402 0-1.38583-.6218-1.38583-1.3858s.62181-1.3858 1.38583-1.3858zm20.52209 0c.764 0 1.3859.6218 1.3859 1.3858s-.6219 1.3858-1.3859 1.3858-1.3858-.6218-1.3858-1.3858.6218-1.3858 1.3858-1.3858z" fill="#000"></path></svg>