<svg xmlns="http://www.w3.org/2000/svg" fill="none" height="56" viewBox="0 0 50 56" width="50"><path d="m49.0178 8.81745-9.5263-7.962305c-.1953-.162726-.4471-.241394-.7003-.218759-.2531.022634-.487.144724-.6503.339506l-4.1303 4.944258-3.119-2.60533c-.0966-.08068-.2082-.14154-.3283-.17911-.1201-.03756-.2465-.05109-.3718-.03982-.1254.01127-.2473.04713-.3588.10552s-.2104.13817-.2911.23479l-6.1108 7.3151c-.1626.1953-.2412.447-.2184.7001.0227.2531.1449.4868.3398.6499l7.8824 6.5842-14.7216 17.6196-7.88371-6.5875c-.19522-.1625-.4469-.241-.69991-.2184s-.48675.1446-.65003.3392l-6.11149 7.3145c-.08071.0965-.14162.208-.17923.3281-.03762.1201-.05121.2465-.04.3718.01122.1254.04701.2473.10535.3588.05833.1116.13806.2105.23463.2912l3.11899 2.606-3.858168 4.6178c-.162725.1952-.241394.447-.218759.7002.022634.2532.144724.4871.339507.6504l9.52882 7.9623c.1952.1625.4469.241.6999.2184s.4868-.1446.6501-.3392l3.8581-4.6171 3.1478 2.6302c.1952.1625.4469.2411.6999.2184.253-.0226.4867-.1445.65-.3391l6.1121-7.3145c.0807-.0966.1417-.2081.1793-.3282s.0512-.2465.04-.3718c-.0113-.1254-.047-.2473-.1054-.3588-.0583-.1115-.138-.2105-.2346-.2912l-7.9125-6.6123 14.7216-17.6196 7.915 6.6117c.1953.163.4472.2418.7005.219.2533-.0227.4871-.1452.6501-.3403l6.1102-7.3158c.0808-.0966.1417-.2081.1793-.3282s.0512-.2464.04-.3718c-.0112-.1253-.047-.2473-.1054-.3588-.0583-.1115-.138-.2104-.2346-.2912l-3.149-2.6302 4.1278-4.9423c.1627-.19511.2413-.44681.2186-.69982-.0228-.25302-.1451-.48664-.34-.64953zm-38.1256 44.13545-8.05748-6.7331 3.24357-3.8812 8.05751 6.7325zm8.3559-2.1083-3.1018-2.5919c-.0147-.0141-.0262-.03-.0421-.0428-.0154-.0128-.0333-.0217-.0492-.0332l-9.44261-7.8902c-.01277-.0121-.023-.0262-.03641-.0377-.01342-.0115-.02939-.0185-.04345-.0293l-3.07938-2.5728 4.88293-5.8431 15.79552 13.1978zm22.0661-26.4034-15.7981-13.1967 4.8823-5.84439 15.7981 13.19599zm2.2258-10.5607-8.0581-6.73115 3.5157-4.20892 8.0556 6.73375z" fill="#000"></path></svg>