<svg xmlns="http://www.w3.org/2000/svg" fill="none" height="57" viewBox="0 0 56 57" width="56"><g fill="#000"><path d="m50.4836 38.5574-12.6099 7.4709-4.8032-3.0352h6.0388c.9244 0 1.8108-.3672 2.4644-1.0208s1.0208-1.5401 1.0208-2.4644-.3672-1.8108-1.0208-2.4644-1.54-1.0207-2.4644-1.0207h-10.373c-1.1931-.007-2.377.2078-3.4915.6336l-8.0666 3.6626v-.8111c0-.2521-.1001-.4938-.2783-.6721-.1783-.1782-.4201-.2784-.6721-.2784h-6.97034c-.25209 0-.49385.1002-.67211.2784-.17825.1783-.27839.42-.27839.6721v15.8416c0 .2521.10014.4938.27839.6721.17826.1782.42002.2784.67211.2784h6.97034c.252 0 .4938-.1002.6721-.2784.1782-.1783.2783-.42.2783-.6721v-.9505h19.7006c1.2469.0021 2.4624-.3905 3.4725-1.1216l13.4717-9.6507c.5632-.4855.9304-1.1594 1.033-1.8958.1026-.7365-.0664-1.4851-.4755-2.106-.409-.621-1.0301-1.0718-1.7473-1.2682-.7171-.1964-1.4812-.1251-2.1496.2007zm-35.2063 15.8416h-5.0693v-13.9406h5.0693zm37.4431-12.2867-13.478 9.6253c-.688.4963-1.5153.7624-2.3636.7604h-19.7006v-10.0942l8.7953-3.9731c.882-.3373 1.8185-.5091 2.7628-.5069h10.373c.4202 0 .8231.1669 1.1202.4639.2971.2971.464.7001.464 1.1202 0 .4202-.1669.8231-.464 1.1202s-.7.464-1.1202.464h-9.3212c-.2062-.0003-.407.0666-.5719.1905-.165.1239-.2851.298-.3424.4962-.0572.1982-.0484.4096.0251.6024.0735.1927.2077.3563.3823.4661l8.0666 5.0693c.1496.0919.3218.1406.4974.1406s.3478-.0487.4974-.1406l13.1168-7.7877c.2569-.1505.5619-.1965.8517-.1283.2898.0681.5423.2452.7052.4944s.2237.5515.1698.8444c-.0539.2928-.2184.5536-.4593.7285z"></path><path d="m54.8812 30.9535h-2.2178c-.1601-5.8248-2.3971-11.4004-6.3071-15.7207-3.9101-4.3203-9.2357-7.1005-15.0157-7.83895.5301-.59265.8772-1.32604.9996-2.11165s.0148-1.58986-.3098-2.31567-.8523-1.34215-1.5195-1.77463c-.6672-.432475-1.4453-.662603-2.2404-.662603s-1.5732.230128-2.2403.662603c-.6672.43248-1.195 1.04882-1.5196 1.77463s-.4322 1.53006-.3098 2.31567.4696 1.519.9996 2.11165c-5.7816.73582-11.1094 3.51505-15.021 7.83575-3.91164 4.3206-6.14905 9.8978-6.30808 15.7239h-2.85149c-.252086 0-.493848.1001-.672101.2784-.178252.1782-.2783931.42-.2783931.6721 0 .252.1001411.4938.2783931.6721.178253.1782.420015.2784.672101.2784h53.86137c.2521 0 .4939-.1002.6721-.2784.1783-.1783.2784-.4201.2784-.6721 0-.2521-.1001-.4939-.2784-.6721-.1782-.1783-.42-.2784-.6721-.2784zm-26.6138-28.5149c.4386 0 .8674.13008 1.2321.37377.3647.2437.649.59008.8169.99533.1678.40526.2117.85119.1262 1.2814-.0856.43022-.2968.82539-.607 1.13556s-.7054.5214-1.1356.60697c-.4302.08558-.8761.04166-1.2814-.1262-.4052-.16786-.7516-.45213-.9953-.81685s-.3738-.79351-.3738-1.23215c0-.58821.2337-1.15232.6496-1.56824s.9801-.64959 1.5683-.64959zm0 6.65347c5.8564.00248 11.4814 2.28693 15.6812 6.36843 4.1999 4.0816 6.644 9.639 6.8138 15.493h-44.99009c.16977-5.854 2.61392-11.4114 6.81379-15.493 4.1998-4.0815 9.8248-6.36595 15.6813-6.36843z"></path><path d="m23.16 13.5974c-2.6111.7394-5.0296 2.0391-7.087 3.8087s-3.7043 3.9665-4.8258 6.4377c-.0631.1151-.1016.2421-.1132.3728-.0116.1308.0041.2626.046.387s.1091.2388.1974.336.1957.175.3156.2286c.1199.0535.2495.0817.3808.0826.1313.001.2614-.0252.382-.077s.2292-.1281.3189-.2239c.0898-.0959.1586-.2093.2024-.3331 1.0097-2.2168 2.4902-4.1871 4.3384-5.7738 1.8483-1.5867 4.02-2.7518 6.3641-3.4143.2429-.0689.4484-.2315.5714-.4519s.1534-.4807.0845-.7235c-.0689-.2429-.2315-.4484-.4519-.5714-.2205-.123-.4807-.1534-.7236-.0845z"></path></g></svg>