<svg width="114" height="106" viewBox="0 0 114 106" fill="none" xmlns="http://www.w3.org/2000/svg">
<path d="M57.5675 0.338018C60.1212 1.52098 62.6547 2.73474 65.1698 3.9924C65.6933 4.25269 66.2168 4.51297 66.7561 4.78114C68.4559 5.62751 70.1542 6.47681 71.8523 7.32659C72.432 7.61605 73.0116 7.90551 73.6089 8.20374C82.1581 12.4745 90.6522 16.8308 99.0731 21.3349C103.75 23.8287 108.455 26.2719 113.156 28.7225C112.897 48.555 112.638 68.3876 112.37 88.8211C101.154 92.893 89.8032 96.6531 78.2176 99.6186C75.1533 100.409 72.1423 101.278 69.1388 102.265C68.4766 102.48 67.8145 102.695 67.1322 102.917C65.8705 103.331 64.6124 103.757 63.3594 104.195C56.3727 106.477 50.7324 104.889 44.0052 102.514C42.5943 102.047 41.1823 101.582 39.7692 101.121C39.0253 100.877 38.2814 100.633 37.515 100.381C29.1854 97.662 20.8279 95.1481 12.358 92.8715C8.48684 91.8215 4.63653 90.7002 0.785807 89.5818C0.526491 69.2472 0.267174 48.9126 0 27.9617C5.18633 25.4513 10.3727 22.9408 15.7161 20.3543C21.1595 17.5962 21.1595 17.5962 26.5916 14.8181C32.2352 11.9267 37.9095 9.09189 43.5822 6.25439C44.3741 5.85704 45.1661 5.4597 45.982 5.05031C46.7311 4.67693 47.4802 4.30355 48.2519 3.91886C50.0218 2.99768 51.6863 2.00224 53.3735 0.949435C55.7923 -0.185735 55.7923 -0.185735 57.5675 0.338018Z" fill="#A59886"/>
<path d="M59.7214 10.4647C61.579 11.22 61.579 11.22 63.3895 12.1615C64.0814 12.5165 64.7733 12.8716 65.4862 13.2374C66.2256 13.6247 66.965 14.012 67.7268 14.411C69.3329 15.2376 70.9393 16.0637 72.546 16.8894C73.3931 17.327 74.2401 17.7646 75.1129 18.2155C79.3384 20.3867 83.5864 22.5155 87.8352 24.6436C89.2137 25.3344 90.5914 26.0265 91.9692 26.7187C95.8763 28.6805 99.7895 30.6205 103.727 32.5262C103.727 37.5471 103.727 42.568 103.727 47.741C98.4336 46.033 98.4336 46.033 95.9207 44.701C95.3549 44.4056 94.7891 44.1102 94.2061 43.8058C93.604 43.4883 93.0019 43.1709 92.3815 42.8438C85.8095 39.4278 79.1354 36.272 72.3681 33.2351C68.0114 31.2576 63.9994 29.1008 60.027 26.4633C57.4235 25.3763 56.1605 25.6877 53.4349 26.4403C51.1229 27.3929 48.9085 28.4978 46.6849 29.6288C46.0393 29.951 45.3937 30.2732 44.7286 30.6052C42.6671 31.6359 40.6104 32.6753 38.5537 33.7148C37.1988 34.3934 35.8436 35.0715 34.488 35.7489C29.385 38.3045 24.2857 40.8657 19.2304 43.509C18.6836 43.7945 18.1369 44.08 17.5735 44.3741C16.5567 44.9068 15.5414 45.4423 14.528 45.9812C11.1733 47.741 11.1733 47.741 9.42969 47.741C9.42969 42.7201 9.42969 37.6992 9.42969 32.5262C11.6004 31.4524 13.7712 30.3786 16.0078 29.2722C18.1589 28.2073 20.3099 27.1421 22.4609 26.0768C23.9321 25.3484 25.4034 24.6203 26.875 23.8926C28.3045 23.1856 29.7337 22.4782 31.1627 21.7702C32.5844 21.0661 34.0069 20.3633 35.4301 19.6618C38.8255 17.9819 42.194 16.2724 45.522 14.4701C46.1263 14.1465 46.7307 13.8229 47.3533 13.4895C48.4766 12.8848 49.5941 12.27 50.7044 11.6433C54.0554 9.84778 56.0436 9.36227 59.7214 10.4647Z" fill="#F7F0EC"/>
<path d="M60.5071 56.8699C61.0258 56.8699 61.5444 56.8699 62.0788 56.8699C62.0788 57.372 62.0788 57.8741 62.0788 58.3914C62.8749 58.5866 63.6711 58.7817 64.4914 58.9828C67.5502 59.8294 70.1947 61.1306 72.9818 62.623C74.3159 63.3306 74.3159 63.3306 75.6769 64.0524C77.7949 65.2381 77.7949 65.2381 78.5807 65.9988C78.6502 67.8614 78.6713 69.7023 78.6574 71.5647C78.6563 72.1209 78.6552 72.677 78.6541 73.25C78.6497 75.0329 78.6398 76.8158 78.6298 78.5986C78.6259 79.8046 78.6223 81.0106 78.6191 82.2166C78.6104 85.1789 78.5968 88.1411 78.5807 91.1033C76.0121 91.8692 73.4413 92.628 70.87 93.3856C70.1401 93.6033 69.4103 93.821 68.6584 94.0453C67.9569 94.2512 67.2554 94.4571 66.5327 94.6693C65.5636 94.9561 65.5636 94.9561 64.5749 95.2488C62.8646 95.6678 62.8646 95.6678 60.5071 95.6678C60.5071 82.8645 60.5071 70.0612 60.5071 56.8699Z" fill="#F6EFEB"/>
<path d="M63.7885 37.046C64.6977 37.4898 65.6068 37.9335 66.5435 38.3907C67.4946 38.8606 68.4456 39.3306 69.3966 39.8007C70.3628 40.2741 71.3292 40.7471 72.2958 41.2197C74.6549 42.375 77.011 43.536 79.3666 44.698C79.3666 48.7147 79.3666 52.7315 79.3666 56.8699C76.252 56.2669 74.4027 55.7514 71.6712 54.4242C70.9819 54.0903 70.2925 53.7564 69.5823 53.4124C68.8728 53.0628 68.1632 52.7132 67.4321 52.353C66.7134 52.0063 65.9947 51.6597 65.2543 51.3025C59.9314 48.7051 59.9314 48.7051 58.1498 46.9802C55.012 47.2543 52.5428 48.429 49.7668 49.8122C48.9357 50.2216 48.1045 50.6311 47.2482 51.0529C46.3887 51.4819 45.5292 51.911 44.6437 52.353C42.9313 53.2046 41.2175 54.0536 39.5022 54.8997C38.7453 55.2773 37.9885 55.6549 37.2086 56.044C35.3613 56.8699 35.3613 56.8699 33.7897 56.8699C33.7897 52.8532 33.7897 48.8365 33.7897 44.698C36.1467 43.4927 38.5042 42.2883 40.862 41.0845C41.5214 40.7471 42.1809 40.4098 42.8603 40.0622C44.1771 39.3903 45.496 38.7221 46.8169 38.0579C48.0456 37.4334 49.2661 36.7935 50.4759 36.1352C51.2842 35.7079 51.2842 35.7079 52.1089 35.2719C52.5758 35.0167 53.0428 34.7615 53.5239 34.4986C57.2036 33.3794 60.5618 35.461 63.7885 37.046Z" fill="#F6EFEB"/>
<path d="M51.8633 57.6307C51.8633 69.9319 51.8633 82.2331 51.8633 94.907C39.2904 91.8641 39.2904 91.8641 33.7897 90.3426C33.7897 82.0581 33.7897 73.7736 33.7897 65.2381C36.4801 63.9829 39.1705 62.7276 41.9425 61.4344C42.7897 61.0372 43.6369 60.6401 44.5098 60.2309C45.1759 59.922 45.8421 59.6131 46.5284 59.2948C47.2115 58.9761 47.8946 58.6574 48.5984 58.329C50.2917 57.6307 50.2917 57.6307 51.8633 57.6307Z" fill="#F7F1ED"/>
<path d="M25.1458 49.2625C25.1458 62.0658 25.1458 74.8691 25.1458 88.0604C17.0943 86.3282 17.0943 86.3282 13.7516 85.3502C13.0952 85.161 12.4388 84.9717 11.7626 84.7767C10.2155 84.2567 10.2155 84.2567 9.42969 83.4959C9.36011 81.4676 9.33913 79.4591 9.35295 77.4308C9.35407 76.824 9.35518 76.2172 9.35632 75.592C9.36074 73.6463 9.3706 71.7007 9.38058 69.755C9.38452 68.4391 9.3881 67.1231 9.39132 65.8072C9.40001 62.5745 9.41358 59.3418 9.42969 56.1092C11.7518 54.9632 14.0774 53.8239 16.4037 52.6859C17.0652 52.3593 17.7267 52.0327 18.4082 51.6963C19.0413 51.3874 19.6743 51.0785 20.3266 50.7602C20.911 50.4734 21.4953 50.1865 22.0974 49.891C23.5742 49.2625 23.5742 49.2625 25.1458 49.2625Z" fill="#F6F0EC"/>
<path d="M88.0104 49.2625C92.7253 50.784 92.7253 50.784 103.727 56.1092C103.727 65.1468 103.727 74.1844 103.727 83.4959C98.2259 85.7781 98.2259 85.7781 88.0104 88.0604C88.0104 75.2571 88.0104 62.4538 88.0104 49.2625Z" fill="#F8F2EE"/>
</svg>
