<svg width="460" height="210" viewBox="0 0 460 210" fill="none" xmlns="http://www.w3.org/2000/svg">
<path d="M230.445 0.338018C232.999 1.52098 235.532 2.73474 238.047 3.9924C238.571 4.25269 239.094 4.51297 239.634 4.78114C241.334 5.62751 243.032 6.47681 244.73 7.32659C245.31 7.61605 245.889 7.90551 246.487 8.20374C255.036 12.4745 263.53 16.8308 271.951 21.3349C276.627 23.8287 281.333 26.2719 286.034 28.7225C285.775 48.555 285.515 68.3876 285.248 88.8211C274.032 92.893 262.681 96.6531 251.095 99.6186C248.031 100.409 245.02 101.278 242.016 102.265C241.354 102.48 240.692 102.695 240.01 102.917C238.748 103.331 237.49 103.757 236.237 104.195C229.25 106.477 223.61 104.889 216.883 102.514C215.472 102.047 214.06 101.582 212.647 101.121C211.903 100.877 211.159 100.633 210.393 100.381C202.063 97.662 193.705 95.1481 185.236 92.8715C181.364 91.8215 177.514 90.7002 173.663 89.5818C173.404 69.2472 173.145 48.9126 172.878 27.9617C178.064 25.4513 183.25 22.9408 188.594 20.3543C194.037 17.5962 194.037 17.5962 199.469 14.8181C205.113 11.9267 210.787 9.09189 216.46 6.25439C217.252 5.85704 218.044 5.4597 218.86 5.05031C219.609 4.67693 220.358 4.30355 221.13 3.91886C222.899 2.99768 224.564 2.00224 226.251 0.949435C228.67 -0.185735 228.67 -0.185735 230.445 0.338018Z" fill="#A59886"/>
<path d="M358.595 136.48C363.022 140.03 365.771 143.523 366.373 149.146C366.545 154.65 365.565 158.45 361.656 162.545C355.42 168.142 349.29 170.464 340.841 170.33C332.258 169.893 326.153 167.681 320.266 161.472C316.757 157.163 316.097 152.751 316.68 147.398C317.731 142.406 320.439 139.096 324.538 135.987C334.253 130.098 349.156 130.043 358.595 136.48Z" fill="#F6F0EC"/>
<path d="M232.599 10.4647C234.457 11.22 234.457 11.22 236.267 12.1615C236.959 12.5165 237.651 12.8716 238.364 13.2374C239.103 13.6247 239.843 14.012 240.604 14.411C242.211 15.2376 243.817 16.0637 245.424 16.8894C246.271 17.327 247.118 17.7646 247.99 18.2155C252.216 20.3867 256.464 22.5155 260.713 24.6436C262.091 25.3344 263.469 26.0265 264.847 26.7187C268.754 28.6805 272.667 30.6205 276.604 32.5262C276.604 37.5471 276.604 42.568 276.604 47.741C271.311 46.033 271.311 46.033 268.798 44.701C268.232 44.4056 267.667 44.1102 267.084 43.8058C266.482 43.4883 265.879 43.1709 265.259 42.8438C258.687 39.4278 252.013 36.272 245.246 33.2351C240.889 31.2576 236.877 29.1008 232.905 26.4633C230.301 25.3763 229.038 25.6877 226.312 26.4403C224.001 27.3929 221.786 28.4978 219.563 29.6288C218.917 29.951 218.271 30.2732 217.606 30.6052C215.545 31.6359 213.488 32.6753 211.431 33.7148C210.076 34.3934 208.721 35.0715 207.366 35.7489C202.263 38.3045 197.163 40.8657 192.108 43.509C191.561 43.7945 191.014 44.08 190.451 44.3741C189.434 44.9068 188.419 45.4423 187.406 45.9812C184.051 47.741 184.051 47.741 182.307 47.741C182.307 42.7201 182.307 37.6992 182.307 32.5262C184.478 31.4524 186.649 30.3786 188.885 29.2722C191.037 28.2073 193.188 27.1421 195.339 26.0768C196.81 25.3484 198.281 24.6203 199.753 23.8926C201.182 23.1856 202.611 22.4782 204.04 21.7702C205.462 21.0661 206.884 20.3633 208.308 19.6618C211.703 17.9819 215.072 16.2724 218.4 14.4701C219.004 14.1465 219.608 13.8229 220.231 13.4895C221.354 12.8848 222.472 12.27 223.582 11.6433C226.933 9.84778 228.921 9.36227 232.599 10.4647Z" fill="#F7F0EC"/>
<path d="M141.445 132.944C145.951 132.866 150.457 132.787 155.099 132.706C157.207 132.654 157.207 132.654 159.357 132.601C166.046 132.505 172.112 132.466 177.592 136.748C180 139.424 180.289 141.128 180.294 144.688C180.309 145.534 180.324 146.381 180.34 147.253C179.871 150.169 178.906 151.385 176.807 153.484C174.453 155.096 173.423 155.766 170.52 155.766C170.985 156.309 171.45 156.851 171.929 157.41C175.277 161.339 178.536 165.265 181.521 169.46C178.404 170.208 175.983 170.314 172.878 169.46C169.087 166.561 166.165 162.637 163.448 158.809C163.448 158.307 163.448 157.805 163.448 157.288C158.521 157.288 153.594 157.288 148.518 157.288C148.518 161.305 148.518 165.321 148.518 169.46C146.184 169.46 143.85 169.46 141.445 169.46C141.445 157.41 141.445 145.359 141.445 132.944Z" fill="#5D5B58"/>
<path d="M91.9395 132.944C96.3478 132.897 100.756 132.85 105.298 132.802C106.677 132.781 108.055 132.76 109.476 132.739C110.588 132.732 111.7 132.726 112.812 132.721C113.374 132.71 113.936 132.698 114.515 132.686C119.748 132.683 123.959 133.87 128.087 137.033C130.427 140.1 130.192 143.673 130.045 147.342C129.474 150.794 128.475 152.01 125.729 154.245C123.596 155.581 122.81 155.766 120.229 155.766C120.693 156.309 121.158 156.851 121.637 157.41C124.986 161.339 128.245 165.265 131.23 169.46C128.193 170.004 125.608 170.146 122.586 169.46C119.089 166.493 116.567 162.803 114.197 158.952C111.436 156.436 108.768 156.695 105.102 156.67C104.441 156.651 103.781 156.632 103.1 156.612C101.476 156.567 99.8509 156.545 98.2259 156.527C98.2259 160.795 98.2259 165.063 98.2259 169.46C96.1514 169.46 94.0768 169.46 91.9395 169.46C91.9395 157.41 91.9395 145.359 91.9395 132.944Z" fill="#595754"/>
<path d="M206.667 132.944C209.001 132.944 211.335 132.944 213.74 132.944C218.979 141.856 224.19 150.783 229.308 159.76C229.718 160.47 230.127 161.181 230.549 161.912C230.923 162.571 231.296 163.23 231.681 163.909C232.011 164.487 232.341 165.064 232.681 165.66C233.385 167.178 233.385 167.178 233.385 169.46C231.051 169.46 228.717 169.46 226.312 169.46C225.651 168.37 224.998 167.275 224.348 166.179C223.983 165.57 223.619 164.961 223.243 164.334C222.383 162.613 222.383 162.613 222.383 160.331C214.345 160.331 206.306 160.331 198.023 160.331C197.505 161.837 196.986 163.343 196.452 164.895C195.69 166.428 194.91 167.953 194.094 169.46C191.501 169.46 188.908 169.46 186.236 169.46C187.294 166.778 188.511 164.27 189.92 161.745C190.336 160.999 190.752 160.253 191.181 159.484C191.624 158.697 192.066 157.909 192.523 157.098C192.976 156.29 193.429 155.481 193.896 154.649C197.289 148.627 200.807 142.688 204.445 136.801C205.223 135.536 205.987 134.261 206.667 132.944Z" fill="#5E5C59"/>
<path d="M432.194 132.944C434.528 132.944 436.862 132.944 439.266 132.944C444.502 141.85 449.705 150.771 454.786 159.76C455.39 160.825 455.39 160.825 456.007 161.912C456.378 162.571 456.749 163.23 457.131 163.909C457.457 164.487 457.783 165.064 458.119 165.66C458.911 167.178 458.911 167.178 459.697 169.46C457.104 169.46 454.511 169.46 451.839 169.46C450.283 166.698 448.727 163.937 447.124 161.092C439.604 161.092 432.084 161.092 424.336 161.092C421.181 165.879 421.181 165.879 420.407 169.46C417.814 169.46 415.221 169.46 412.549 169.46C413.598 166.146 414.934 163.214 416.631 160.164C416.874 159.726 417.117 159.288 417.367 158.837C418.147 157.431 418.933 156.028 419.719 154.625C420.255 153.663 420.791 152.701 421.326 151.739C424.851 145.42 428.432 139.135 432.194 132.944Z" fill="#5D5B58"/>
<path d="M358.595 136.48C363.022 140.03 365.771 143.523 366.373 149.146C366.545 154.65 365.565 158.45 361.656 162.545C355.42 168.142 349.29 170.464 340.841 170.33C332.258 169.893 326.153 167.681 320.266 161.472C316.757 157.163 316.097 152.751 316.68 147.398C317.731 142.406 320.439 139.096 324.538 135.987C334.253 130.098 349.156 130.043 358.595 136.48ZM325.407 144.159C323.551 147.83 323.938 151.816 324.538 155.766C326.428 160.034 329.821 162.066 333.968 164.135C339.209 165.826 345.257 165.376 350.409 163.519C353.853 161.608 356.56 158.429 358.328 155.006C358.74 151.007 358.851 147.668 357.002 144.022C353.479 140.243 350.383 137.7 345.077 137.253C343.912 137.235 342.746 137.225 341.581 137.223C341.004 137.205 340.427 137.186 339.832 137.167C333.835 137.136 329.194 139.618 325.407 144.159Z" fill="#5F5D5A"/>
<path d="M264.817 132.944C271.104 132.944 271.104 132.944 273.593 134.675C274.4 135.463 275.19 136.267 275.966 137.084C276.395 137.51 276.825 137.936 277.268 138.376C278.634 139.737 279.977 141.118 281.319 142.501C282.666 143.86 284.017 145.215 285.37 146.569C286.208 147.41 287.041 148.255 287.868 149.104C291.041 152.336 294.309 155.074 297.821 158.049C298.08 149.764 298.34 141.48 298.607 132.944C300.941 132.944 303.274 132.944 305.679 132.944C305.679 144.994 305.679 157.044 305.679 169.46C299.393 169.46 299.393 169.46 297.622 168.478C297.162 168.018 296.701 167.559 296.226 167.085C295.692 166.568 295.157 166.05 294.607 165.516C294.055 164.95 293.503 164.385 292.934 163.802C292.35 163.228 291.766 162.654 291.164 162.062C289.308 160.231 287.474 158.38 285.641 156.527C284.384 155.28 283.125 154.034 281.865 152.789C278.782 149.742 275.731 146.669 272.675 143.595C272.416 152.13 272.156 160.666 271.889 169.46C269.555 169.46 267.222 169.46 264.817 169.46C264.817 157.41 264.817 145.359 264.817 132.944Z" fill="#5C5A57"/>
<path d="M46.3626 132.944C57.5132 132.944 68.6638 132.944 80.1523 132.944C80.1523 134.45 80.1523 135.957 80.1523 137.509C71.3356 137.509 62.5188 137.509 53.4349 137.509C53.4349 141.023 53.4349 144.538 53.4349 148.159C61.2144 148.159 68.9939 148.159 77.0091 148.159C77.0091 149.916 77.0091 151.674 77.0091 153.484C69.2296 153.484 61.4501 153.484 53.4349 153.484C53.4349 156.999 53.4349 160.513 53.4349 164.135C62.5109 164.135 71.587 164.135 80.9381 164.135C80.9381 165.892 80.9381 167.649 80.9381 169.46C69.5282 169.46 58.1183 169.46 46.3626 169.46C46.3626 157.41 46.3626 145.359 46.3626 132.944Z" fill="#5C5A57"/>
<path d="M233.385 56.8699C233.903 56.8699 234.422 56.8699 234.956 56.8699C234.956 57.372 234.956 57.8741 234.956 58.3914C235.753 58.5866 236.549 58.7817 237.369 58.9828C240.428 59.8294 243.072 61.1306 245.859 62.623C247.193 63.3306 247.193 63.3306 248.554 64.0524C250.672 65.2381 250.672 65.2381 251.458 65.9988C251.528 67.8614 251.549 69.7023 251.535 71.5647C251.534 72.1209 251.533 72.677 251.532 73.25C251.527 75.0329 251.517 76.8158 251.507 78.5986C251.503 79.8046 251.5 81.0106 251.497 82.2166C251.488 85.1789 251.474 88.1411 251.458 91.1033C248.89 91.8692 246.319 92.628 243.748 93.3856C243.018 93.6033 242.288 93.821 241.536 94.0453C240.834 94.2512 240.133 94.4571 239.41 94.6693C238.441 94.9561 238.441 94.9561 237.452 95.2488C235.742 95.6678 235.742 95.6678 233.385 95.6678C233.385 82.8645 233.385 70.0612 233.385 56.8699Z" fill="#F6EFEB"/>
<path d="M236.666 37.046C237.575 37.4898 238.484 37.9335 239.421 38.3907C240.372 38.8606 241.323 39.3307 242.274 39.8008C243.24 40.2742 244.207 40.7472 245.173 41.2197C247.532 42.3751 249.889 43.536 252.244 44.698C252.244 48.7148 252.244 52.7315 252.244 56.8699C249.13 56.2669 247.28 55.7514 244.549 54.4243C243.859 54.0903 243.17 53.7564 242.46 53.4124C241.75 53.0628 241.041 52.7132 240.31 52.353C239.591 52.0064 238.872 51.6597 238.132 51.3025C232.809 48.7051 232.809 48.7051 231.027 46.9803C227.89 47.2543 225.42 48.429 222.644 49.8123C221.813 50.2217 220.982 50.6311 220.126 51.0529C219.266 51.4819 218.407 51.911 217.521 52.353C215.809 53.2046 214.095 54.0537 212.38 54.8997C211.623 55.2773 210.866 55.6549 210.086 56.044C208.239 56.8699 208.239 56.8699 206.667 56.8699C206.667 52.8532 206.667 48.8365 206.667 44.698C209.024 43.4927 211.382 42.2884 213.74 41.0845C214.399 40.7472 215.058 40.4098 215.738 40.0623C217.055 39.3903 218.374 38.7221 219.695 38.0579C220.923 37.4334 222.144 36.7935 223.353 36.1352C224.162 35.7079 224.162 35.7079 224.986 35.272C225.453 35.0168 225.92 34.7615 226.402 34.4986C230.081 33.3794 233.439 35.461 236.666 37.046Z" fill="#F6EFEB"/>
<path d="M224.741 57.6307C224.741 69.9319 224.741 82.2331 224.741 94.907C212.168 91.8641 212.168 91.8641 206.667 90.3426C206.667 82.0581 206.667 73.7736 206.667 65.2381C209.358 63.9829 212.048 62.7276 214.82 61.4344C215.667 61.0372 216.514 60.6401 217.387 60.2309C218.054 59.922 218.72 59.6131 219.406 59.2948C220.089 58.9761 220.772 58.6574 221.476 58.329C223.169 57.6307 223.169 57.6307 224.741 57.6307Z" fill="#F7F1ED"/>
<path d="M198.023 49.2625C198.023 62.0658 198.023 74.8691 198.023 88.0604C189.972 86.3282 189.972 86.3282 186.629 85.3502C185.973 85.161 185.316 84.9717 184.64 84.7767C183.093 84.2567 183.093 84.2567 182.307 83.4959C182.238 81.4676 182.217 79.4591 182.231 77.4308C182.232 76.824 182.233 76.2172 182.234 75.592C182.238 73.6463 182.248 71.7007 182.258 69.755C182.262 68.4391 182.266 67.1231 182.269 65.8072C182.278 62.5745 182.291 59.3418 182.307 56.1092C184.629 54.9632 186.955 53.8239 189.281 52.6859C189.943 52.3593 190.604 52.0327 191.286 51.6963C191.919 51.3874 192.552 51.0785 193.204 50.7602C193.789 50.4734 194.373 50.1865 194.975 49.891C196.452 49.2625 196.452 49.2625 198.023 49.2625Z" fill="#F6F0EC"/>
<path d="M370.115 132.944C372.708 132.944 375.302 132.944 377.973 132.944C378.234 133.43 378.495 133.917 378.764 134.418C379.973 136.669 381.183 138.919 382.393 141.17C382.804 141.934 383.214 142.699 383.637 143.486C384.047 144.249 384.457 145.011 384.88 145.797C385.292 146.564 385.705 147.331 386.13 148.122C387.776 151.12 389.509 154.068 391.263 157.008C392.118 158.809 392.118 158.809 392.118 161.852C392.636 161.852 393.155 161.852 393.689 161.852C393.873 161.25 394.056 160.648 394.245 160.028C396.321 154.43 399.329 149.202 402.144 143.925C402.994 142.311 403.808 140.685 404.611 139.048C405.805 136.774 406.839 134.824 408.62 132.944C411.147 132.22 413.149 132.341 415.692 132.944C414.693 136.044 413.503 138.862 411.953 141.74C411.529 142.53 411.105 143.32 410.668 144.134C410.219 144.96 409.77 145.786 409.307 146.638C408.622 147.908 408.622 147.908 407.922 149.204C404.974 154.64 401.936 160.007 398.711 165.294C397.533 167.186 397.533 167.186 396.833 169.46C394.499 169.46 392.165 169.46 389.76 169.46C384.886 161.098 380.183 152.665 375.635 144.132C375.068 143.07 375.068 143.07 374.489 141.987C374.157 141.361 373.824 140.735 373.481 140.09C372.755 138.779 371.977 137.495 371.168 136.23C370.115 134.466 370.115 134.466 370.115 132.944Z" fill="#5D5B58"/>
<path d="M260.888 49.2625C265.603 50.784 265.603 50.784 276.604 56.1092C276.604 65.1468 276.604 74.1844 276.604 83.4959C271.104 85.7781 271.104 85.7781 260.888 88.0604C260.888 75.2571 260.888 62.4538 260.888 49.2625Z" fill="#F8F2EE"/>
<path d="M0 132.944C12.4472 132.944 24.8944 132.944 37.7188 132.944C37.7188 134.45 37.7188 135.957 37.7188 137.509C32.7917 137.76 27.8647 138.011 22.7884 138.269C22.5291 148.562 22.2698 158.855 22.0026 169.46C19.9281 169.46 17.8535 169.46 15.7161 169.46C15.7161 158.916 15.7161 148.372 15.7161 137.509C10.5298 137.509 5.34349 137.509 0 137.509C0 136.002 0 134.496 0 132.944Z" fill="#555350"/>
<path d="M106.968 137.318C107.705 137.303 108.443 137.287 109.203 137.271C113.77 137.246 116.987 137.66 121.014 139.791C122.586 141.312 122.586 141.312 122.881 144.26C122.816 146.574 122.69 147.256 121.26 149.205C118.035 151.399 115.272 152.156 111.348 152.111C110.581 152.106 109.814 152.102 109.023 152.096C108.231 152.084 107.44 152.071 106.624 152.058C105.817 152.051 105.011 152.044 104.179 152.037C102.195 152.019 100.21 151.994 98.2259 151.963C98.2048 149.696 98.1892 147.43 98.1768 145.164C98.1702 144.517 98.1636 143.87 98.1568 143.204C98.1543 142.588 98.1518 141.973 98.1492 141.339C98.145 140.769 98.1409 140.2 98.1367 139.613C98.378 135.978 104.166 137.333 106.968 137.318Z" fill="#F7F1ED"/>
<path d="M194.094 191.521C197.255 191.451 197.255 191.451 200.479 191.379C201.134 191.358 201.788 191.337 202.462 191.316C206.971 191.267 209.95 192.193 213.617 194.855C215.228 197.037 214.937 199.239 214.851 201.833C214.525 203.693 214.525 203.693 212.856 205.975C208.644 208.812 204.716 209.235 199.693 209.113C197.846 209.082 195.998 209.051 194.094 209.018C194.094 203.244 194.094 197.47 194.094 191.521Z" fill="#9F978D"/>
<path d="M148.518 138.269C151.841 138.187 155.163 138.127 158.487 138.079C159.429 138.054 160.371 138.028 161.341 138.002C162.704 137.987 162.704 137.987 164.096 137.972C164.931 137.956 165.766 137.94 166.627 137.924C169.55 138.359 170.834 139.271 172.878 141.312C173.285 143.796 173.481 145.062 172.878 147.398C170.762 150.072 169.199 151.387 165.805 151.963C164.444 152.023 163.08 152.045 161.717 152.037C160.947 152.035 160.177 152.032 159.384 152.03C158.586 152.023 157.787 152.017 156.965 152.01C155.749 152.005 155.749 152.005 154.509 152C152.512 151.991 150.515 151.977 148.518 151.963C148.518 147.444 148.518 142.925 148.518 138.269Z" fill="#F4EFEB"/>
<path d="M76.2233 191.521C78.4761 191.474 80.7289 191.427 83.05 191.379C84.104 191.348 84.104 191.348 85.1793 191.316C88.8892 191.278 91.2613 191.502 94.2969 193.804C95.0827 194.564 95.0827 194.564 95.3282 196.704C95.0827 199.129 95.0827 199.129 93.5111 200.936C92.9924 201.343 92.4738 201.751 91.9394 202.172C93.1169 204.539 94.4535 206.777 95.8685 209.018C94.1986 209.351 94.1986 209.351 91.9394 209.018C90.905 207.859 90.905 207.859 89.8276 206.403C88.3199 204.503 87.6016 203.79 85.1772 203.17C83.228 203 81.3229 202.906 79.3665 202.932C79.3665 204.941 79.3665 206.949 79.3665 209.018C78.3293 209.018 77.292 209.018 76.2233 209.018C76.2233 203.244 76.2233 197.47 76.2233 191.521Z" fill="#A29A90"/>
<path d="M261.674 191.521C262.97 191.521 264.267 191.521 265.603 191.521C265.797 191.992 265.992 192.463 266.192 192.948C267.014 194.646 267.014 194.646 268.574 195.206C272.088 196.979 274.661 200.213 277.39 202.932C277.649 199.167 277.909 195.401 278.176 191.521C279.472 191.521 280.769 191.521 282.105 191.521C282.105 197.295 282.105 203.069 282.105 209.018C278.176 209.018 278.176 209.018 276.648 207.995C276.174 207.527 275.701 207.058 275.214 206.576C274.694 206.068 274.175 205.56 273.64 205.036C273.111 204.499 272.582 203.962 272.037 203.408C271.22 202.611 271.22 202.611 270.387 201.797C266.389 197.831 266.389 197.831 266.389 196.086C265.87 196.086 265.351 196.086 264.817 196.086C264.817 200.354 264.817 204.621 264.817 209.018C263.78 209.018 262.742 209.018 261.674 209.018C261.674 203.244 261.674 197.47 261.674 191.521Z" fill="#A69F96"/>
<path d="M330.825 191.521C336.53 191.521 342.235 191.521 348.113 191.521C348.113 192.274 348.113 193.028 348.113 193.804C343.704 193.804 339.296 193.804 334.754 193.804C334.754 195.561 334.754 197.318 334.754 199.129C338.644 199.129 342.533 199.129 346.541 199.129C346.541 199.882 346.541 200.635 346.541 201.411C342.651 201.411 338.762 201.411 334.754 201.411C334.754 203.168 334.754 204.926 334.754 206.736C339.162 206.736 343.571 206.736 348.113 206.736C348.113 207.489 348.113 208.242 348.113 209.018C342.408 209.018 336.703 209.018 330.825 209.018C330.825 203.244 330.825 197.47 330.825 191.521Z" fill="#989187"/>
<path d="M229.456 191.521C235.161 191.521 240.866 191.521 246.743 191.521C246.743 192.274 246.743 193.028 246.743 193.804C242.076 193.804 237.408 193.804 232.599 193.804C232.599 195.561 232.599 197.318 232.599 199.129C236.489 199.129 240.378 199.129 244.386 199.129C244.386 199.882 244.386 200.635 244.386 201.411C240.756 201.411 237.125 201.411 233.385 201.411C233.385 203.168 233.385 204.926 233.385 206.736C237.793 206.736 242.202 206.736 246.743 206.736C246.743 207.489 246.743 208.242 246.743 209.018C241.039 209.018 235.334 209.018 229.456 209.018C229.456 203.244 229.456 197.47 229.456 191.521Z" fill="#9B9489"/>
<path d="M198.023 193.804C207.482 193.473 207.482 193.473 210.596 196.086C211.826 198.466 211.662 200.312 211.382 202.932C210.007 204.787 210.007 204.787 207.453 205.975C204.26 206.221 201.237 206.112 198.023 205.975C198.023 201.959 198.023 197.942 198.023 193.804Z" fill="#F6F0EB"/>
<path d="M209.025 140.552C211.819 141.453 211.975 141.938 213.331 144.355C213.678 144.967 214.025 145.579 214.383 146.21C214.738 146.853 215.093 147.496 215.459 148.159C215.823 148.802 216.187 149.446 216.562 150.108C219.24 154.874 219.24 154.874 219.24 155.766C213.276 155.766 207.312 155.766 201.167 155.766C203.786 150.695 206.405 145.623 209.025 140.552Z" fill="#F0EAE6"/>
<path d="M110.799 191.521C116.244 191.521 121.69 191.521 127.301 191.521C127.301 192.274 127.301 193.028 127.301 193.804C122.892 193.804 118.484 193.804 113.942 193.804C113.942 195.561 113.942 197.318 113.942 199.129C117.832 199.129 121.722 199.129 125.729 199.129C125.729 199.882 125.729 200.635 125.729 201.411C121.839 201.411 117.95 201.411 113.942 201.411C113.942 203.168 113.942 204.926 113.942 206.736C118.61 206.736 123.277 206.736 128.087 206.736C128.087 207.489 128.087 208.242 128.087 209.018C122.382 209.018 116.677 209.018 110.799 209.018C110.799 203.244 110.799 197.47 110.799 191.521Z" fill="#989186"/>
<path d="M371.294 191.284C372.177 191.286 373.061 191.289 373.971 191.292C376.269 191.509 377.602 191.885 379.545 193.043C379.286 193.796 379.026 194.549 378.759 195.325C378.257 195.199 377.754 195.074 377.237 194.945C374.063 194.443 370.965 194.503 367.758 194.564C367.498 195.568 367.239 196.573 366.972 197.607C368.207 197.815 368.207 197.815 369.468 198.026C370.551 198.219 371.635 198.412 372.718 198.606C373.261 198.695 373.803 198.785 374.362 198.878C376.632 199.292 378.435 199.659 380.315 200.995C381.117 202.172 381.117 202.172 381.117 204.026C379.993 206.813 379.166 207.602 376.402 209.018C371.62 209.537 367.454 209.459 363.043 207.497C363.043 206.493 363.043 205.488 363.043 204.454C363.529 204.705 364.015 204.956 364.516 205.215C368.133 206.335 372.904 206.908 376.402 205.215C376.914 203.674 376.914 203.674 377.187 202.172C376.364 202.088 375.54 202.005 374.692 201.919C373.608 201.798 372.525 201.676 371.441 201.554C370.899 201.5 370.356 201.447 369.798 201.392C367.517 201.125 365.761 200.898 363.866 199.595C362.531 197.605 362.697 196.102 363.043 193.803C365.584 191.272 367.751 191.232 371.294 191.284Z" fill="#9F988E"/>
<path d="M150.482 191.236C151.365 191.246 152.249 191.256 153.159 191.266C155.441 191.506 156.798 191.895 158.733 193.043C158.474 193.796 158.214 194.549 157.947 195.325C157.297 195.138 157.297 195.138 156.633 194.948C154.595 194.52 152.762 194.49 150.679 194.517C149.627 194.527 149.627 194.527 148.554 194.538C148.024 194.546 147.493 194.555 146.946 194.564C146.687 195.568 146.427 196.573 146.16 197.607C147.395 197.815 147.395 197.815 148.656 198.026C149.739 198.219 150.823 198.412 151.906 198.606C152.449 198.695 152.991 198.785 153.55 198.878C155.814 199.291 157.613 199.648 159.479 200.995C160.305 202.172 160.305 202.172 160.698 204.026C160.305 205.975 160.305 205.975 158.659 207.598C155.855 209.342 154.185 209.403 150.875 209.351C149.935 209.35 148.995 209.349 148.026 209.348C145.237 209.001 143.713 208.303 141.445 206.736C141.834 205.606 141.834 205.606 142.231 204.454C142.769 204.703 143.307 204.952 143.861 205.209C146.544 206.104 148.683 206.126 151.513 206.07C152.426 206.057 153.339 206.043 154.279 206.029C155.317 206.002 155.317 206.002 156.376 205.975C156.116 204.971 155.857 203.967 155.59 202.932C154.823 202.794 154.056 202.656 153.266 202.513C152.266 202.322 151.267 202.131 150.237 201.934C149.243 201.749 148.249 201.563 147.225 201.372C144.734 200.69 143.684 200.387 142.231 198.368C141.887 196.514 141.887 196.514 142.231 194.564C144.695 191.42 146.494 191.139 150.482 191.236Z" fill="#999188"/>
<path d="M434.551 140.552C437.293 141.436 437.412 141.792 438.686 144.162C439.153 145.023 439.153 145.023 439.63 145.902C440.106 146.807 440.106 146.807 440.592 147.731C440.919 148.332 441.246 148.932 441.582 149.551C443.981 154.024 443.981 154.024 443.981 155.766C438.535 155.766 433.09 155.766 427.479 155.766C429.247 150.631 429.247 150.631 430.408 148.426C430.651 147.961 430.894 147.495 431.144 147.015C431.518 146.31 431.518 146.31 431.899 145.591C432.282 144.86 432.282 144.86 432.673 144.115C433.296 142.925 433.923 141.738 434.551 140.552Z" fill="#F1EBE7"/>
<path d="M307.496 191.331C308.829 191.302 308.829 191.302 310.188 191.272C312.97 191.543 314.427 192.248 316.68 193.804C315.902 194.557 315.124 195.31 314.323 196.086C313.545 195.584 312.767 195.082 311.966 194.564C309.891 194.294 309.891 194.294 307.644 194.327C306.513 194.307 306.513 194.307 305.36 194.288C303.315 194.413 303.315 194.413 301.891 195.53C300.267 197.836 300.525 200.251 300.964 202.932C302.177 204.587 303.036 205.076 304.893 205.975C306.524 206.126 306.524 206.126 308.331 206.118C308.937 206.129 309.543 206.14 310.167 206.151C312.138 205.959 313.359 205.308 315.109 204.454C315.627 204.705 316.146 204.956 316.68 205.215C316.68 205.717 316.68 206.219 316.68 206.736C313.53 209.471 310.216 209.351 306.198 209.241C302.341 208.83 299.519 207.285 297.035 204.454C296.183 202.152 295.959 200.036 296.249 197.607C299.091 192.816 301.906 191.405 307.496 191.331Z" fill="#989187"/>
<path d="M80.1523 193.804C81.6746 193.762 83.1972 193.733 84.7198 193.708C85.5677 193.691 86.4155 193.673 87.2891 193.655C89.582 193.804 89.582 193.804 91.9395 195.325C91.2519 199.034 91.2519 199.034 90.3678 199.889C88.6498 199.945 86.9299 199.953 85.211 199.937C83.7994 199.927 83.7994 199.927 82.3594 199.916C81.631 199.907 80.9027 199.899 80.1523 199.889C80.1523 197.881 80.1523 195.873 80.1523 193.804Z" fill="#F2EBE5"/>
<path d="M261.674 191.521C265.603 191.521 265.603 191.521 267.027 192.853C267.96 194.564 267.96 194.564 267.96 197.607C267.442 197.607 266.923 197.607 266.389 197.607C266.389 197.105 266.389 196.603 266.389 196.086C265.87 196.086 265.351 196.086 264.817 196.086C264.817 200.354 264.817 204.621 264.817 209.018C263.78 209.018 262.742 209.018 261.674 209.018C261.674 203.244 261.674 197.47 261.674 191.521Z" fill="#958F85"/>
<path d="M175.235 191.521C176.272 191.521 177.31 191.521 178.378 191.521C178.378 197.295 178.378 203.069 178.378 209.018C177.341 209.018 176.304 209.018 175.235 209.018C175.235 203.244 175.235 197.47 175.235 191.521Z" fill="#928B81"/>
<path d="M77.0091 192.282C77.787 192.282 78.565 192.282 79.3665 192.282C79.6258 194.792 79.8851 197.303 80.1523 199.889C82.7455 200.141 85.3387 200.392 88.0104 200.65C87.7511 201.152 87.4918 201.654 87.2246 202.172C85.6008 202.487 85.6008 202.487 83.6393 202.647C82.6654 202.732 82.6654 202.732 81.6718 202.82C80.9196 202.875 80.9196 202.875 80.1523 202.932C79.893 204.941 79.6337 206.949 79.3665 209.018C78.5886 209.018 77.8106 209.018 77.0091 209.018C77.0091 203.495 77.0091 197.972 77.0091 192.282Z" fill="#8D867C"/>
<path d="M100.616 137.422C101.303 137.426 101.99 137.43 102.698 137.434C103.44 137.437 104.182 137.439 104.947 137.442C105.727 137.448 106.508 137.454 107.312 137.461C108.095 137.464 108.879 137.468 109.686 137.471C111.629 137.48 113.571 137.493 115.514 137.509C115.514 138.011 115.514 138.513 115.514 139.03C110.327 139.03 105.141 139.03 99.7975 139.03C99.5382 143.047 99.2789 147.064 99.0117 151.202C104.457 151.202 109.903 151.202 115.514 151.202C115.514 151.453 115.514 151.704 115.514 151.963C109.809 151.963 104.104 151.963 98.2259 151.963C98.2097 149.719 98.1935 147.475 98.1768 145.164C98.1696 144.456 98.1625 143.748 98.1551 143.018C98.1531 142.464 98.1512 141.91 98.1492 141.339C98.145 140.769 98.1409 140.2 98.1367 139.613C98.2674 137.644 98.5896 137.531 100.616 137.422Z" fill="#BFBCB7"/>
<path d="M278.962 192.282C279.74 192.282 280.517 192.282 281.319 192.282C281.319 197.805 281.319 203.328 281.319 209.018C280.022 208.767 278.726 208.516 277.39 208.258C277.39 207.002 277.39 205.747 277.39 204.454C277.909 204.454 278.427 204.454 278.962 204.454C278.962 200.437 278.962 196.42 278.962 192.282Z" fill="#8C857A"/>
<path d="M194.88 192.282C195.917 192.533 196.955 192.784 198.023 193.043C197.764 197.562 197.505 202.08 197.238 206.736C199.571 206.736 201.905 206.736 204.31 206.736C204.31 206.987 204.31 207.238 204.31 207.497C201.198 207.999 198.086 208.501 194.88 209.018C194.88 203.495 194.88 197.972 194.88 192.282Z" fill="#938A7D"/>
<path d="M197.238 193.804C197.497 193.804 197.756 193.804 198.023 193.804C198.023 197.82 198.023 201.837 198.023 205.975C200.26 205.834 200.26 205.834 202.542 205.69C203.8 205.611 203.8 205.611 205.083 205.53C207.298 205.235 208.697 204.791 210.596 203.693C210.596 204.948 210.596 206.204 210.596 207.497C207.089 208.808 204.23 209.188 200.479 209.113C199.573 209.1 198.668 209.086 197.735 209.072C197.052 209.054 196.369 209.037 195.666 209.018C196.444 208.516 197.222 208.014 198.023 207.497C197.764 207.246 197.505 206.995 197.238 206.736C197.18 204.558 197.165 202.399 197.188 200.222C197.192 199.609 197.196 198.996 197.199 198.364C197.209 196.844 197.223 195.324 197.238 193.804Z" fill="#AFA89F"/>
<path d="M230.242 204.454C231.019 204.454 231.797 204.454 232.599 204.454C232.599 205.207 232.599 205.96 232.599 206.736C237.267 206.736 241.934 206.736 246.744 206.736C246.744 207.489 246.744 208.242 246.744 209.018C241.298 209.018 235.852 209.018 230.242 209.018C230.242 207.512 230.242 206.006 230.242 204.454Z" fill="#8F897F"/>
<path d="M371.196 191.379C372.093 191.368 372.991 191.357 373.915 191.346C376.275 191.512 377.564 191.848 379.545 193.043C379.286 193.796 379.026 194.549 378.759 195.325C378.257 195.2 377.754 195.074 377.237 194.945C373.734 194.391 369.44 193.75 366.186 195.325C365.927 194.823 365.668 194.321 365.4 193.804C364.622 194.306 363.844 194.808 363.043 195.325C364.952 191.233 366.696 191.403 371.196 191.379Z" fill="#AAA39A"/>
<path d="M365.4 193.043C365.66 193.043 365.919 193.043 366.186 193.043C366.445 194.549 366.705 196.055 366.972 197.607C369.565 198.36 372.158 199.114 374.83 199.889C374.83 200.141 374.83 200.392 374.83 200.65C373.308 200.712 371.785 200.756 370.263 200.793C369.415 200.819 368.567 200.846 367.693 200.873C365.4 200.65 365.4 200.65 363.909 199.622C363.043 198.368 363.043 198.368 363.19 196.419C363.829 194.564 363.829 194.564 365.4 193.043Z" fill="#90887F"/>
<path d="M145.374 191.521C147.011 191.48 148.648 191.451 150.286 191.426C151.653 191.4 151.653 191.4 153.048 191.373C155.455 191.513 156.723 191.819 158.733 193.043C158.474 193.796 158.214 194.549 157.947 195.325C157.309 195.138 157.309 195.138 156.658 194.948C154.488 194.499 152.503 194.491 150.286 194.517C149.512 194.524 148.738 194.53 147.941 194.538C147.059 194.551 147.059 194.551 146.16 194.564C145.901 193.56 145.642 192.556 145.374 191.521Z" fill="#A49D94"/>
<path d="M142.231 204.454C142.687 204.61 143.143 204.766 143.612 204.926C147.073 206.082 150.37 207.044 154.018 207.497C154.018 207.999 154.018 208.501 154.018 209.018C144.819 209.439 144.819 209.439 141.445 206.736C141.705 205.983 141.964 205.23 142.231 204.454Z" fill="#999289"/>
<path d="M302.536 191.521C304.156 191.459 305.777 191.415 307.398 191.379C308.301 191.352 309.203 191.326 310.133 191.298C312.964 191.539 314.397 192.217 316.68 193.804C315.902 194.557 315.124 195.31 314.323 196.086C313.545 195.584 312.767 195.082 311.965 194.564C310.406 194.396 308.845 194.23 307.278 194.139C305.259 193.715 304.103 192.794 302.536 191.521Z" fill="#A9A198"/>
<path d="M316.68 205.215C316.68 205.717 316.68 206.219 316.68 206.736C314.035 208.586 312.961 209.018 309.608 209.018C310.394 206.736 310.394 206.736 312.26 205.405C314.323 204.454 314.323 204.454 316.68 205.215Z" fill="#9E9890"/>
<path d="M230.242 204.454C231.019 204.454 231.797 204.454 232.599 204.454C232.599 205.207 232.599 205.96 232.599 206.736C233.896 206.736 235.192 206.736 236.528 206.736C235.595 207.877 235.595 207.877 234.171 209.018C232.059 209.161 232.059 209.161 230.242 209.018C230.242 207.512 230.242 206.006 230.242 204.454Z" fill="#888076"/>
<path d="M364.615 192.282C367.986 192.282 371.357 192.282 374.83 192.282C374.83 192.533 374.83 192.784 374.83 193.043C374.092 193.194 374.092 193.194 373.338 193.349C372.375 193.55 372.375 193.55 371.392 193.756C370.754 193.888 370.116 194.021 369.458 194.157C367.735 194.506 367.735 194.506 366.186 195.325C365.927 194.823 365.668 194.321 365.4 193.804C364.622 194.306 363.844 194.808 363.043 195.325C363.562 194.321 364.08 193.317 364.615 192.282Z" fill="#9D968D"/>
<path d="M150.089 192.282C152.682 192.282 155.276 192.282 157.947 192.282C157.947 193.286 157.947 194.29 157.947 195.325C155.354 194.572 152.761 193.819 150.089 193.043C150.089 192.792 150.089 192.541 150.089 192.282Z" fill="#989189"/>
<path d="M91.1536 204.454C94.0897 205.401 94.4443 206.458 95.8685 209.018C94.5592 209.051 93.2487 209.049 91.9394 209.018C91.1536 208.258 91.1536 208.258 91.1045 206.308C91.1207 205.696 91.1369 205.084 91.1536 204.454Z" fill="#948E85"/>
<path d="M146.16 206.736C148.753 206.987 151.346 207.238 154.018 207.497C154.018 207.999 154.018 208.501 154.018 209.018C148.812 209.113 148.812 209.113 146.16 208.258C146.16 207.756 146.16 207.253 146.16 206.736Z" fill="#8B8379"/>
<path d="M363.043 204.454C364.988 205.207 364.988 205.207 366.972 205.975C366.972 206.477 366.972 206.98 366.972 207.497C365.675 207.497 364.379 207.497 363.043 207.497C363.043 206.493 363.043 205.489 363.043 204.454Z" fill="#978F86"/>
</svg>
