<svg fill="none" height="42" viewBox="0 0 42 42" width="42" xmlns="http://www.w3.org/2000/svg"><path d="m27.7327 12.9595-3.2399-.7104-10.2255 2.2389v1.4692l10.2255-2.2389 3.2399.7105zm-14.9669 11.0705v16.2909c-1.6092-.6889-3.11613-1.5662-4.48851-2.6156v-11.0813c1.50154-.8664 2.99771-1.7329 4.48851-2.594zm26.9361.8665-1.4907-.8665v9.0038c2.3841-3.4067 3.7888-7.5561 3.7888-12.0338 0-5.7963-2.3573-11.04895-6.1515-14.84854-3.7996-3.79959-9.0522-6.15146-14.8485-6.15146-5.8016 0-11.04895 2.35187-14.84316 6.15146-3.79959 3.79959-6.15684 9.04694-6.15684 14.84314 0 5.8017 2.35725 11.049 6.15684 14.8486.20451.2099.41441.409.62968.6081v-8.9662l-3.40671 1.9644c-1.22707-2.5564-1.91595-5.4249-1.91595-8.4549 0-5.398 2.19042-10.2847 5.72092-13.82059 3.53052-3.53049 8.41722-5.71553 13.81522-5.71553s10.2847 2.18504 13.8206 5.7263c3.5359 3.53592 5.7209 8.42262 5.7209 13.82062 0 1.9697-.2906 3.8749-.8342 5.6671v-1.776zm-2.9869 10.0264c-.2798.3175-.5705.6243-.8665.9203-.2099.2045-.4144.409-.6296.6027v-14.1435l1.4961.8611zm-2.9977 2.7824c-.479.3713-.9849.7158-1.4961 1.0441v-18.1746l1.4961.8665zm-2.9923 1.9052c-.4844.2529-.9849.4897-1.4961.7104v-21.4736l1.4961.8664zm-2.9923 1.2808c-2.1151.7158-4.3808 1.1033-6.7327 1.1033-2.3573 0-4.623-.3875-6.7381-1.1033v-.4628c.8504-.1991 1.1948-.2691 2.0774-.4467l8.1481-1.7868 3.2399.7051v1.2163zm-7.2171-.3605c.1669.0053.3229.0053.4844.0053 1.6522 0 3.2614-.2045 4.7899-.592l-1.2917-.2798zm7.2171-4.467-3.2399-.7104-10.2255 2.2389v1.4692l10.2255-2.2388 3.2399.7104zm0-2.9331-3.2399-.7104-10.2309 2.2388v1.4693l10.2255-2.2389 3.2399.7104v-1.4692zm0-2.847-3.2399-.705-10.2255 2.2334v1.4693l10.2255-2.2335 3.2399.705zm0-2.9331-3.2399-.705-10.2255 2.2334v1.4693l10.2255-2.2335 3.2399.705zm0-2.9331-3.2399-.7104-10.2255 2.2388v1.4693l10.2255-2.2389 3.2399.7104zm0-2.8416-3.2399-.7104-10.2255 2.2388v1.4693l10.2255-2.2389 3.2399.7104zm0-2.8417-3.2399-.7104-10.2255 2.2389v1.4692l10.2255-2.2388 3.2399.7104zm0-2.9331-3.2399-.7104-10.2309 2.2389v1.4692l10.2255-2.2388 3.2399.7104v-1.4693z" fill="#c78960"/></svg>